<svg id="Layer_2" data-name="Layer 2" xmlns="http://www.w3.org/2000/svg" width="20.32" height="20.546" viewBox="0 0 20.32 20.546">
  <g id="Miscellaneous">
    <g id="Calendar">
      <path id="Path_7258" data-name="Path 7258" d="M19.609,90.786H2.159A1.419,1.419,0,0,1,.74,89.369V73.7A1.419,1.419,0,0,1,2.159,72.28H5.292a.278.278,0,1,1,0,.556H2.159A.862.862,0,0,0,1.3,73.7V89.369a.862.862,0,0,0,.862.861h17.45a.862.862,0,0,0,.861-.861V73.7a.862.862,0,0,0-.861-.861H15.193a.278.278,0,1,1,0-.557h4.416A1.419,1.419,0,0,1,21.026,73.7V89.369A1.419,1.419,0,0,1,19.609,90.786Z" transform="translate(-0.719 -70.24)" fill="#646569"/>
      <path id="Path_7259" data-name="Path 7259" d="M349.935,72.837h-4.516a.278.278,0,0,1,0-.557h4.516a.278.278,0,0,1,0,.557Z" transform="translate(-335.398 -70.24)" fill="#646569"/>
      <path id="Path_7260" data-name="Path 7260" d="M153.3,72.837h-5.1a.278.278,0,0,1,0-.557h5.1a.278.278,0,0,1,0,.557Z" transform="translate(-143.745 -70.24)" fill="#646569"/>
      <path id="Path_7261" data-name="Path 7261" d="M20.042,258.487H.278a.278.278,0,1,1,0-.557H20.042a.278.278,0,1,1,0,.557Z" transform="translate(0 -250.649)" fill="#646569"/>
      <path id="Path_7262" data-name="Path 7262" d="M165.008,4.976a.278.278,0,0,1-.278-.278V.278a.278.278,0,1,1,.557,0V4.7a.278.278,0,0,1-.278.278Z" transform="translate(-160.08)" fill="#646569"/>
      <path id="Path_7263" data-name="Path 7263" d="M518.058,4.976a.278.278,0,0,1-.278-.278V.278a.278.278,0,1,1,.557,0V4.7a.278.278,0,0,1-.278.278Z" transform="translate(-503.164)" fill="#646569"/>
      <path id="Path_7264" data-name="Path 7264" d="M341.528,5.271a.278.278,0,0,1-.278-.278V.574a.279.279,0,0,1,.557,0V4.993a.278.278,0,0,1-.279.278Z" transform="translate(-331.617 -0.295)" fill="#646569"/>
      <rect id="Rectangle_15289" data-name="Rectangle 15289" width="0.883" height="0.884" rx="0.442" transform="translate(6.691 13.453)" fill="#646569"/>
      <rect id="Rectangle_15290" data-name="Rectangle 15290" width="0.884" height="0.884" rx="0.442" transform="translate(3.658 13.453)" fill="#646569"/>
      <rect id="Rectangle_15291" data-name="Rectangle 15291" width="0.883" height="0.884" rx="0.441" transform="translate(9.723 13.453)" fill="#646569"/>
      <rect id="Rectangle_15292" data-name="Rectangle 15292" width="0.883" height="0.884" rx="0.441" transform="translate(12.755 13.453)" fill="#646569"/>
      <rect id="Rectangle_15293" data-name="Rectangle 15293" width="0.884" height="0.884" rx="0.442" transform="translate(15.787 13.453)" fill="#646569"/>
      <rect id="Rectangle_15294" data-name="Rectangle 15294" width="0.883" height="0.884" rx="0.442" transform="translate(6.691 10.423)" fill="#646569"/>
      <rect id="Rectangle_15295" data-name="Rectangle 15295" width="0.883" height="0.884" rx="0.441" transform="translate(9.723 10.423)" fill="#646569"/>
      <rect id="Rectangle_15296" data-name="Rectangle 15296" width="0.883" height="0.884" rx="0.441" transform="translate(12.755 10.423)" fill="#646569"/>
      <rect id="Rectangle_15297" data-name="Rectangle 15297" width="0.884" height="0.884" rx="0.442" transform="translate(15.787 10.423)" fill="#646569"/>
      <rect id="Rectangle_15298" data-name="Rectangle 15298" width="0.883" height="0.884" rx="0.442" transform="translate(6.691 16.484)" fill="#646569"/>
      <rect id="Rectangle_15299" data-name="Rectangle 15299" width="0.884" height="0.884" rx="0.442" transform="translate(3.658 16.484)" fill="#646569"/>
      <rect id="Rectangle_15300" data-name="Rectangle 15300" width="0.883" height="0.884" rx="0.441" transform="translate(9.723 16.484)" fill="#646569"/>
      <rect id="Rectangle_15301" data-name="Rectangle 15301" width="0.883" height="0.884" rx="0.441" transform="translate(12.755 16.484)" fill="#646569"/>
    </g>
  </g>
</svg>
