<svg xmlns="http://www.w3.org/2000/svg" width="100.028" height="63.598" viewBox="0 0 100.028 63.598">
  <g id="Family_RGB_black" transform="translate(0.25 0.25)">
    <path id="Path_2525" data-name="Path 2525" d="M29.948,40.19A10.1,10.1,0,1,0,20,30.095,10.022,10.022,0,0,0,29.948,40.19Zm0-17.666a7.572,7.572,0,1,1-7.461,7.571A7.517,7.517,0,0,1,29.948,22.524Z" transform="translate(19.841 5.237)" stroke="#000" stroke-width="0.5"/>
    <path id="Path_2526" data-name="Path 2526" d="M43.435,35.237A12.62,12.62,0,1,0,31,22.619,12.528,12.528,0,0,0,43.435,35.237Zm0-22.714a10.1,10.1,0,1,1-9.948,10.095A10.022,10.022,0,0,1,43.435,12.524Z" transform="translate(36.197 -10)" stroke="#000" stroke-width="0.5"/>
    <path id="Path_2527" data-name="Path 2527" d="M32.924,29h-.249A15.012,15.012,0,0,0,18,42.78a1.248,1.248,0,1,0,2.487.2A12.51,12.51,0,0,1,32.7,31.524h.224A12.506,12.506,0,0,1,45.359,42.982,1.276,1.276,0,0,0,46.6,44.142h0a1.281,1.281,0,0,0,1.144-1.363A15.009,15.009,0,0,0,32.924,29Z" transform="translate(16.865 18.951)" stroke="#000" stroke-width="0.5"/>
    <path id="Path_2528" data-name="Path 2528" d="M67.793,40.66A19.9,19.9,0,1,0,28,40.66,1.256,1.256,0,0,0,29.146,42a1.207,1.207,0,0,0,.909-.307,1.244,1.244,0,0,0,.409-.879,17.411,17.411,0,1,1,34.817,0v2.372a1.306,1.306,0,0,0,1.169,1.338h0a1.251,1.251,0,0,0,1.243-1.186V42C67.693,41.543,67.793,41.089,67.793,40.66Z" transform="translate(31.735 5.954)" stroke="#000" stroke-width="0.5"/>
    <path id="Path_2529" data-name="Path 2529" d="M19.435,35.237A12.62,12.62,0,1,0,7,22.619,12.528,12.528,0,0,0,19.435,35.237Zm0-22.714A10.1,10.1,0,1,1,9.487,22.619a10.022,10.022,0,0,1,9.948-10.095Z" transform="translate(0.511 -10)" stroke="#000" stroke-width="0.5"/>
    <path id="Path_2530" data-name="Path 2530" d="M42.627,42a1.256,1.256,0,0,0,1.144-1.338,20.044,20.044,0,0,0-19.9-20.19A20.044,20.044,0,0,0,3.98,40.66v2.675a1.226,1.226,0,0,0,1.243,1.186h0a1.284,1.284,0,0,0,.924-.393,1.323,1.323,0,0,0,.37-.944,14.162,14.162,0,0,1,0-2.372A17.539,17.539,0,0,1,23.925,23.145,17.539,17.539,0,0,1,41.334,40.811,1.251,1.251,0,0,0,42.627,42Z" transform="translate(-3.98 5.954)" stroke="#000" stroke-width="0.5"/>
  </g>
</svg>
