<svg xmlns="http://www.w3.org/2000/svg" width="73.392" height="63.598" viewBox="0 0 73.392 63.598">
  <g id="HP_printOS_insight_RGB_black" transform="translate(0.25 0.25)">
    <path id="Path_2517" data-name="Path 2517" d="M58.434,34.782C56.147,32.3,50.045,26.5,42.7,26.5s-13.394,5.8-15.752,8.3a2.1,2.1,0,0,0,0,2.9C29.234,40.2,35.337,46,42.7,46s13.448-5.8,15.734-8.3a2.187,2.187,0,0,0,0-2.918Zm-11-1.38a5.74,5.74,0,0,1-2.451,5.108,4.718,4.718,0,0,1-5.269,0A5.74,5.74,0,0,1,37.263,33.4a6.052,6.052,0,0,1,1.8-4.4,12.862,12.862,0,0,1,3.6-.513,13.19,13.19,0,0,1,2.646.276A6.121,6.121,0,0,1,47.434,33.4Zm9.739,2.938c-1.656,1.794-7.615,7.71-14.4,7.71s-12.818-5.915-14.4-7.887a28.744,28.744,0,0,1,7.9-6.034,8.166,8.166,0,0,0,.857,8.755,6.528,6.528,0,0,0,7.834,1.978,7.673,7.673,0,0,0,4.271-7.46,8.49,8.49,0,0,0-.846-3.648A27.873,27.873,0,0,1,57.174,36.2Z" transform="translate(13.9 9.978)" stroke="#000" stroke-width="0.5"/>
    <path id="Path_2518" data-name="Path 2518" d="M51.706,69.126h-8.1V58.281a.946.946,0,0,0-.9-.986H11.2a5.659,5.659,0,0,1-5.4-5.758V15.729a5.659,5.659,0,0,1,5.4-5.758H68.808a5.659,5.659,0,0,1,5.4,5.758V48.264a.9.9,0,1,0,1.8,0V15.729C75.931,11.435,72.73,8,68.808,8H11.2C7.278,8,4.078,11.437,4,15.731V51.537c.078,4.294,3.28,7.73,7.2,7.729H36.4v9.859H28.3a.99.99,0,0,0,0,1.972h23.4a.99.99,0,0,0,0-1.972Zm-13.5,0V59.267h3.6v9.859Z" transform="translate(-4 -8)" stroke="#000" stroke-width="0.5"/>
    <path id="Path_2519" data-name="Path 2519" d="M32.9,18a.946.946,0,0,0-.9.986V30.817a.9.9,0,1,0,1.8,0V18.986A.946.946,0,0,0,32.9,18Z" transform="translate(18.407 1.718)" stroke="#000" stroke-width="0.5"/>
    <path id="Path_2520" data-name="Path 2520" d="M27,20.986V32.817a.9.9,0,1,0,1.8,0V20.986a.9.9,0,1,0-1.8,0Z" transform="translate(14.405 3.662)" stroke="#000" stroke-width="0.5"/>
    <path id="Path_2521" data-name="Path 2521" d="M22,23.986v6.053a.9.9,0,1,0,1.8,0V23.986a.9.9,0,1,0-1.8,0Z" transform="translate(10.404 6.577)" stroke="#000" stroke-width="0.5"/>
    <path id="Path_2522" data-name="Path 2522" d="M17,19.986v13.8a.9.9,0,1,0,1.8,0v-13.8a.9.9,0,1,0-1.8,0Z" transform="translate(6.403 2.69)" stroke="#000" stroke-width="0.5"/>
    <path id="Path_2523" data-name="Path 2523" d="M12,21.986v9.859a.9.9,0,1,0,1.8,0V21.986a.9.9,0,1,0-1.8,0Z" transform="translate(2.402 4.633)" stroke="#000" stroke-width="0.5"/>
    <path id="Path_2524" data-name="Path 2524" d="M49.79,13.986a.946.946,0,0,0-.9-.986h-5.4a.99.99,0,0,0,0,1.972h3.6L30.978,28.479l-8.443-8.656a.873.873,0,0,0-1.044-.138l-9,5.265a1.038,1.038,0,0,0-.36,1.341.863.863,0,0,0,1.224.394l8.425-4.929,8.533,8.735a.908.908,0,0,0,.612.256.8.8,0,0,0,.54-.2l16.562-13.8V19.9a.9.9,0,1,0,1.8,0Z" transform="translate(2.417 -3.141)" stroke="#000" stroke-width="0.5"/>
  </g>
</svg>
