<svg xmlns="http://www.w3.org/2000/svg" width="73.618" height="73.944" viewBox="0 0 73.618 73.944">
  <g id="HP_web_jetadmin_RGB_black" transform="translate(0.25 0.25)">
    <path id="Path_2531" data-name="Path 2531" d="M52.618,55.141a.963.963,0,0,0-.963-.963H13.705A5.779,5.779,0,0,1,7.926,48.4V13.705a5.779,5.779,0,0,1,5.779-5.779h46.04A5.972,5.972,0,0,1,65.717,13.9V36.244a.963.963,0,1,0,1.926,0V13.9a7.917,7.917,0,0,0-7.9-7.9H13.705A7.705,7.705,0,0,0,6,13.705V48.38a7.705,7.705,0,0,0,7.705,7.705H51.655a.963.963,0,0,0,.963-.944Z" transform="translate(-6 -6)" stroke="#000" stroke-width="0.5"/>
    <path id="Path_2532" data-name="Path 2532" d="M30,32.632A9.632,9.632,0,1,0,39.632,23,9.632,9.632,0,0,0,30,32.632Zm17.337,0a7.705,7.705,0,1,1-7.705-7.705A7.705,7.705,0,0,1,47.337,32.632Z" transform="translate(16.232 9.748)" stroke="#000" stroke-width="0.5"/>
    <path id="Path_2533" data-name="Path 2533" d="M43.342,34.05C34.134,34.05,26,42.584,26,52.293a.867.867,0,1,0,1.714,0c.058-8.707,7.339-16.413,15.623-16.413s15.526,7.705,15.526,16.567a.867.867,0,1,0,1.714,0C60.679,42.6,52.531,34.05,43.342,34.05Z" transform="translate(12.522 19.984)" stroke="#000" stroke-width="0.5"/>
    <path id="Path_2534" data-name="Path 2534" d="M30.337,10A17.337,17.337,0,1,0,47.674,27.337,17.337,17.337,0,0,0,30.337,10ZM43.706,35.043a14.6,14.6,0,0,0-1.291-4.989,3.256,3.256,0,0,1-1.31.6,8.881,8.881,0,0,1,.79,6.8,14.544,14.544,0,0,1-1.541,1.541,4.623,4.623,0,0,1-1.926.4,12.521,12.521,0,0,1-4.854-1.233,3.179,3.179,0,0,1-.6,1.291,14.756,14.756,0,0,0,4.97,1.329,15.411,15.411,0,0,1-15.315.039,14.544,14.544,0,0,0,4.951-1.329A3.275,3.275,0,0,1,27,38.2a12.521,12.521,0,0,1-4.854,1.233,4.623,4.623,0,0,1-2.023-.4,12.946,12.946,0,0,1-1.541-1.541,8.88,8.88,0,0,1,.867-6.839,3.256,3.256,0,0,1-1.31-.6,15.257,15.257,0,0,0-1.291,4.989,15.411,15.411,0,0,1,0-15.237,15.141,15.141,0,0,0,1.31,4.97,3.506,3.506,0,0,1,1.31-.578,8.938,8.938,0,0,1-.867-6.858A16.625,16.625,0,0,1,20.147,15.8a4.912,4.912,0,0,1,2.023-.4,12.521,12.521,0,0,1,4.854,1.233,3.41,3.41,0,0,1,.578-1.291,14.486,14.486,0,0,0-4.97-1.348,15.257,15.257,0,0,1,15.18,0,14.679,14.679,0,0,0-4.97,1.31,3.179,3.179,0,0,1,.6,1.291,12.521,12.521,0,0,1,4.854-1.233,4.912,4.912,0,0,1,1.926.4A19.378,19.378,0,0,1,41.76,17.3a8.938,8.938,0,0,1-.867,6.858,3.506,3.506,0,0,1,1.31.578,14.621,14.621,0,0,0,1.291-4.97,15.237,15.237,0,0,1,0,15.237Z" transform="translate(0.484 -2.295)" stroke="#000" stroke-width="0.5"/>
    <path id="Path_2535" data-name="Path 2535" d="M27.906,18.27a1.445,1.445,0,1,0,1.483,1.406A1.445,1.445,0,0,0,27.906,18.27Z" transform="translate(12.99 5.366)" stroke="#000" stroke-width="0.5"/>
    <path id="Path_2536" data-name="Path 2536" d="M17.425,18.27a1.445,1.445,0,1,0,1.445,1.445A1.445,1.445,0,0,0,17.425,18.27Z" transform="translate(3.245 5.366)" stroke="#000" stroke-width="0.5"/>
    <path id="Path_2537" data-name="Path 2537" d="M22.695,23.52a1.445,1.445,0,1,0,1.445,1.445A1.445,1.445,0,0,0,22.695,23.52Z" transform="translate(8.127 10.23)" stroke="#000" stroke-width="0.5"/>
    <path id="Path_2538" data-name="Path 2538" d="M22.695,13a1.445,1.445,0,1,0,1.445,1.445A1.445,1.445,0,0,0,22.695,13Z" transform="translate(8.127 0.484)" stroke="#000" stroke-width="0.5"/>
    <path id="Path_2539" data-name="Path 2539" d="M28.54,21.224a3.352,3.352,0,0,1,1.117-.905A32.131,32.131,0,0,0,27,17.178a35.121,35.121,0,0,0-3.063-2.658,3.275,3.275,0,0,1-.886,1.1A32.98,32.98,0,0,1,26,18.18,31.245,31.245,0,0,1,28.54,21.224Z" transform="translate(9.794 1.893)" stroke="#000" stroke-width="0.5"/>
    <path id="Path_2540" data-name="Path 2540" d="M28.54,20.09A31.018,31.018,0,0,1,26,23.037,30.149,30.149,0,0,1,23.05,25.7a3.275,3.275,0,0,1,.886,1.1A29.607,29.607,0,0,0,27,24.135a29.934,29.934,0,0,0,2.658-3.063A3.564,3.564,0,0,1,28.54,20.09Z" transform="translate(9.794 7.052)" stroke="#000" stroke-width="0.5"/>
    <path id="Path_2541" data-name="Path 2541" d="M20.138,17.178a32.131,32.131,0,0,0-2.658,3.063,3.352,3.352,0,0,1,1.117.905A31.247,31.247,0,0,1,21.14,18.18a29.916,29.916,0,0,1,2.947-2.543A3.352,3.352,0,0,1,23.2,14.52,35.117,35.117,0,0,0,20.138,17.178Z" transform="translate(4.635 1.893)" stroke="#000" stroke-width="0.5"/>
    <path id="Path_2542" data-name="Path 2542" d="M18.6,20.09a3.564,3.564,0,0,1-1.117.886,29.938,29.938,0,0,0,2.658,3.063A29.608,29.608,0,0,0,23.2,26.7a3.275,3.275,0,0,1,.886-1.1,30.146,30.146,0,0,1-2.947-2.562A31.015,31.015,0,0,1,18.6,20.09Z" transform="translate(4.635 7.052)" stroke="#000" stroke-width="0.5"/>
  </g>
</svg>
