<svg xmlns="http://www.w3.org/2000/svg" xmlns:xlink="http://www.w3.org/1999/xlink" width="498" height="50" viewBox="0 0 498 50">
  <defs>
    <clipPath id="clip-path">
      <rect id="Rectangle_15239" data-name="Rectangle 15239" width="78.083" height="30.279" fill="none"/>
    </clipPath>
    <clipPath id="clip-path-2">
      <rect id="Rectangle_15245" data-name="Rectangle 15245" width="47" height="47" transform="translate(-0.202 0.432)"/>
    </clipPath>
    <clipPath id="clip-path-3">
      <rect id="Rectangle_15244" data-name="Rectangle 15244" width="159.931" height="29.505" fill="none"/>
    </clipPath>
  </defs>
  <g id="Group_15106" data-name="Group 15106" transform="translate(-20 -539)">
    <rect id="Rectangle_15252" data-name="Rectangle 15252" width="494" height="50" transform="translate(20 539)" fill="#fff"/>
    <g id="Group_15104" data-name="Group 15104" transform="translate(0 1)">
      <g id="Group_15103" data-name="Group 15103" transform="translate(0 -15)">
        <text id="with" transform="translate(74 566)" fill="#1a1a1a" font-size="20" font-family="FormaDJRMicro-Regular, Forma DJR Micro"><tspan x="0" y="18">with</tspan></text>
        <g id="Group_15095" data-name="Group 15095" transform="translate(121 563)">
          <rect id="Rectangle_15238" data-name="Rectangle 15238" width="5.661" height="5.661" transform="translate(0 0.412)" fill="#00c7fd"/>
          <g id="Group_15094" data-name="Group 15094" transform="translate(0 0)">
            <g id="Group_15093" data-name="Group 15093" clip-path="url(#clip-path)">
              <path id="Path_7239" data-name="Path 7239" d="M5.494,9.5H.13V29.867H5.494Zm35.559,20.57V25.08a13.407,13.407,0,0,1-1.941-.126,2.235,2.235,0,0,1-1.26-.557,2.193,2.193,0,0,1-.557-1.218,12.474,12.474,0,0,1-.127-1.966V14.09h3.885V9.5H37.168V1.571H31.805V21.255a17.537,17.537,0,0,0,.428,4.2,5.821,5.821,0,0,0,1.429,2.7,5.715,5.715,0,0,0,2.62,1.469,15.776,15.776,0,0,0,4.093.45ZM71.8,0H66.433V29.867H71.8ZM26.633,11.509a8.118,8.118,0,0,0-6.24-2.419,7.878,7.878,0,0,0-3.519.784,7.578,7.578,0,0,0-2.666,2.172l-.292.377,0-.339V9.5H8.622V29.867h5.332V19.019l0,.752c0-.124,0-.247.006-.366a6.113,6.113,0,0,1,1.416-4.224,4.622,4.622,0,0,1,3.4-1.446A4.336,4.336,0,0,1,22.3,15.143a5.994,5.994,0,0,1,1.166,3.9h0V29.867h5.413V18.306a9.674,9.674,0,0,0-2.243-6.8m37.005,8.135a10.945,10.945,0,0,0-.774-4.118,10.556,10.556,0,0,0-2.16-3.362,9.848,9.848,0,0,0-3.317-2.259,10.916,10.916,0,0,0-4.26-.815,10.373,10.373,0,0,0-4.135.834,10.557,10.557,0,0,0-5.626,5.626,10.369,10.369,0,0,0-.834,4.135,10.827,10.827,0,0,0,.795,4.137,10.073,10.073,0,0,0,5.6,5.622,11.259,11.259,0,0,0,4.363.836,11.556,11.556,0,0,0,9.059-4l-3.861-2.941a7.083,7.083,0,0,1-5.156,2.275,6.148,6.148,0,0,1-3.7-1.041,5.157,5.157,0,0,1-1.935-2.827l-.055-.188h16ZM47.684,17.775c0-1.491,1.711-4.094,5.4-4.1s5.405,2.6,5.405,4.09Z" transform="translate(0.018 0)" fill="#0068b5"/>
              <path id="Path_7240" data-name="Path 7240" d="M68.735,24.066a2.016,2.016,0,0,0-1.057-1.057,1.969,1.969,0,0,0-1.543,0,2.016,2.016,0,0,0-1.057,1.057,1.966,1.966,0,0,0,0,1.542,2.016,2.016,0,0,0,1.057,1.057,1.969,1.969,0,0,0,1.543,0,2.016,2.016,0,0,0,1.057-1.057,1.966,1.966,0,0,0,0-1.542m-.323,1.406a1.643,1.643,0,0,1-.349.521,1.669,1.669,0,0,1-.521.349,1.642,1.642,0,0,1-1.271,0,1.661,1.661,0,0,1-.522-.349,1.643,1.643,0,0,1-.349-.521,1.642,1.642,0,0,1,0-1.271,1.627,1.627,0,0,1,.871-.871,1.642,1.642,0,0,1,1.271,0,1.63,1.63,0,0,1,.87.871,1.642,1.642,0,0,1,0,1.271M67.28,25a.637.637,0,0,0,.386-.177.6.6,0,0,0,.154-.449.648.648,0,0,0-.2-.507.884.884,0,0,0-.606-.176h-.876v2.269h.417v-.929h.3l.565.929h.438Zm-.224-.329c-.064.006-.128.008-.192.008h-.3v-.635h.3c.064,0,.128,0,.192,0a.516.516,0,0,1,.174.038.3.3,0,0,1,.126.1.348.348,0,0,1,0,.353.3.3,0,0,1-.126.1.577.577,0,0,1-.174.04" transform="translate(9.191 3.235)" fill="#0068b5"/>
            </g>
          </g>
        </g>
        <g id="Group_15096" data-name="Group 15096" transform="translate(219.083 564)">
          <path id="Path_7241" data-name="Path 7241" d="M50.982,50.818h-6.5l-1.988-4.8H31.663l-1.812,4.8H23.46L33.226,26.6h7ZM36.813,32.385,33.262,41.8h7.458Z" transform="translate(-23.46 -24.726)" fill="#1a1818"/>
          <path id="Path_7242" data-name="Path 7242" d="M95.168,26.6h5.256v24.22H94.387V35.689l-6.534,7.6h-.923l-6.534-7.6V50.818H74.357V26.6h5.256l7.777,8.985Z" transform="translate(-44.038 -24.726)" fill="#1a1818"/>
          <path id="Path_7243" data-name="Path 7243" d="M136.542,26.6c8.843,0,13.388,5.5,13.388,12.145,0,6.96-4.4,12.075-14.062,12.075H125.853V26.6ZM131.89,46.379h3.942c6.072,0,7.883-4.12,7.883-7.672,0-4.155-2.237-7.67-7.955-7.67h-3.87Z" transform="translate(-64.858 -24.726)" fill="#1a1818"/>
          <path id="Path_7244" data-name="Path 7244" d="M193.759,31.07H181.269l-7.613-7.614h27.715V51.172l-7.612-7.614Z" transform="translate(-84.185 -23.456)" fill="#1a1818"/>
          <path id="Path_7245" data-name="Path 7245" d="M181.1,49.771V38.8l-7.838,7.838V57.61h10.97l7.838-7.838Z" transform="translate(-84.026 -29.66)" fill="#1a1818"/>
        </g>
        <g id="Group_15102" data-name="Group 15102" transform="translate(20.202 554.568)" clip-path="url(#clip-path-2)">
          <path id="Path_7255" data-name="Path 7255" d="M22.814,45.388c-.227,0-.453,0-.678-.011L26.8,32.631h6.416a3.145,3.145,0,0,0,2.748-1.913L41.02,16.9a2.874,2.874,0,0,0-2.9-4.114h-8.9L21.754,33.2h0L17.517,44.772A22.67,22.67,0,0,1,16.654.838L12.285,12.783h0L5.021,32.631H9.856l6.177-16.866h3.634L13.49,32.632h4.833L24.079,16.9a2.873,2.873,0,0,0-2.893-4.114H17.121L21.788.024C22.128.009,22.47,0,22.814,0a22.694,22.694,0,1,1,0,45.388m13.8-29.635H32.984L27.9,29.639H31.53Z" transform="translate(0.395 1.09)"/>
        </g>
        <line id="Line_22" data-name="Line 22" y2="44" transform="translate(346 556.5)" fill="none" stroke="#4a4a4a" stroke-width="1"/>
        <line id="Line_23" data-name="Line 23" y2="44" transform="translate(209.083 556.5)" fill="none" stroke="#4a4a4a" stroke-width="1"/>
      </g>
      <g id="Group_15105" data-name="Group 15105">
        <g id="Group_15099" data-name="Group 15099" transform="translate(356 548)">
          <rect id="Rectangle_15240" data-name="Rectangle 15240" width="14.022" height="14.022" transform="translate(0 0)" fill="#0078d4"/>
          <rect id="Rectangle_15241" data-name="Rectangle 15241" width="14.022" height="14.022" transform="translate(15.482 0)" fill="#0078d4"/>
          <rect id="Rectangle_15242" data-name="Rectangle 15242" width="14.022" height="14.023" transform="translate(0 15.482)" fill="#0078d4"/>
          <rect id="Rectangle_15243" data-name="Rectangle 15243" width="14.022" height="14.023" transform="translate(15.482 15.482)" fill="#0078d4"/>
          <path id="Path_7246" data-name="Path 7246" d="M114.6,14.4h3.21l-4.827,17.7h-3.593l-3.555-13.358h-.074L102.209,32.1H98.542L93.6,14.4h3.358l3.445,14h.074l3.852-14h3.284l3.593,13.976h.074Z" transform="translate(-55.245 -8.497)" fill="#0078d4"/>
          <g id="Group_15098" data-name="Group 15098" transform="translate(0 0)">
            <g id="Group_15097" data-name="Group 15097" clip-path="url(#clip-path-3)">
              <path id="Path_7247" data-name="Path 7247" d="M155.123,15.174a1.627,1.627,0,0,1,.537-1.241,1.812,1.812,0,0,1,1.278-.5,1.785,1.785,0,0,1,1.308.512,1.666,1.666,0,0,1,.519,1.229,1.6,1.6,0,0,1-.531,1.222,1.833,1.833,0,0,1-1.3.494,1.8,1.8,0,0,1-1.29-.5,1.616,1.616,0,0,1-.525-1.216m3.3,16.358h-2.988V18.84h2.988Z" transform="translate(-91.554 -7.928)" fill="#0078d4"/>
              <path id="Path_7248" data-name="Path 7248" d="M181.654,31.163v7.766h-2.988V31.842a4.615,4.615,0,0,0-.586-2.593A2.123,2.123,0,0,0,176.2,28.4a2.63,2.63,0,0,0-2.081.951,3.534,3.534,0,0,0-.821,2.4v7.185h-2.987V26.237H173.3v1.679h.05a4.491,4.491,0,0,1,1.728-1.463,5.459,5.459,0,0,1,2.371-.488,3.858,3.858,0,0,1,3.117,1.29,5.933,5.933,0,0,1,1.093,3.907" transform="translate(-100.516 -15.325)" fill="#0078d4"/>
              <path id="Path_7249" data-name="Path 7249" d="M212.558,11.926h2.987V30.643h-2.987V28.964h-.05a4.212,4.212,0,0,1-1.71,1.4,5.851,5.851,0,0,1-2.414.463,4.786,4.786,0,0,1-3.814-1.642,6.738,6.738,0,0,1-1.42-4.556,7.64,7.64,0,0,1,1.574-5.043,5.2,5.2,0,0,1,4.216-1.895,5.277,5.277,0,0,1,2.111.4,3.438,3.438,0,0,1,1.457,1.148h.05ZM209.4,28.531a2.866,2.866,0,0,0,2.272-1.074,4.177,4.177,0,0,0,.913-2.8V23.3a3.185,3.185,0,0,0-.87-2.253,3.068,3.068,0,0,0-4.605.229,5.4,5.4,0,0,0-.858,3.259,4.593,4.593,0,0,0,.846,2.944,2.791,2.791,0,0,0,2.3,1.056" transform="translate(-119.9 -7.039)" fill="#0078d4"/>
              <path id="Path_7250" data-name="Path 7250" d="M238.433,32.733a6.872,6.872,0,0,1,1.778-4.988,6.545,6.545,0,0,1,4.938-1.84,6.085,6.085,0,0,1,4.648,1.772,6.687,6.687,0,0,1,1.673,4.784,6.745,6.745,0,0,1-1.778,4.914,6.439,6.439,0,0,1-4.84,1.827,6.329,6.329,0,0,1-4.685-1.734,6.4,6.4,0,0,1-1.735-4.735m3.111-.1a4.532,4.532,0,0,0,.9,3.037,3.214,3.214,0,0,0,2.58,1.049,3.009,3.009,0,0,0,2.482-1.049,4.85,4.85,0,0,0,.852-3.111,4.686,4.686,0,0,0-.883-3.093A3.068,3.068,0,0,0,245,28.425a3.131,3.131,0,0,0-2.549,1.093,4.754,4.754,0,0,0-.908,3.117" transform="translate(-140.724 -15.29)" fill="#0078d4"/>
              <path id="Path_7251" data-name="Path 7251" d="M287.663,26.628h2.864l-3.7,12.692H283.65l-2.506-9.2h-.05l-2.63,9.2h-3.136l-3.691-12.692h3.1l2.358,9.729h.074l2.778-9.729H282.8l2.506,9.766h.074Z" transform="translate(-160.321 -15.716)" fill="#0078d4"/>
              <path id="Path_7252" data-name="Path 7252" d="M322.6,29.5a1.282,1.282,0,0,0,.407,1.006,6.981,6.981,0,0,0,1.8.92,6.11,6.11,0,0,1,2.512,1.611,3.341,3.341,0,0,1,.723,2.167,3.483,3.483,0,0,1-1.377,2.876,5.847,5.847,0,0,1-3.722,1.086,8.976,8.976,0,0,1-1.747-.191,7.785,7.785,0,0,1-1.624-.488V35.55a7.332,7.332,0,0,0,1.753.9,5.134,5.134,0,0,0,1.7.334,3.035,3.035,0,0,0,1.494-.284,1.015,1.015,0,0,0,.481-.951,1.319,1.319,0,0,0-.5-1.043,7.41,7.41,0,0,0-1.9-.981,5.846,5.846,0,0,1-2.345-1.556,3.406,3.406,0,0,1-.692-2.2,3.472,3.472,0,0,1,1.364-2.821,5.443,5.443,0,0,1,3.537-1.1,8.552,8.552,0,0,1,1.494.148,6.612,6.612,0,0,1,1.383.383v2.839a6.412,6.412,0,0,0-1.383-.679,4.614,4.614,0,0,0-1.568-.284,2.285,2.285,0,0,0-1.327.333,1.057,1.057,0,0,0-.475.913" transform="translate(-188.614 -15.254)" fill="#0078d4"/>
              <path id="Path_7253" data-name="Path 7253" d="M352.127,16.124a20.245,20.245,0,0,0,2.907-1.185,18.97,18.97,0,0,0,2.451-1.506h1.358v18.1h-2.988V17.05a8.86,8.86,0,0,1-1.673.944,11.786,11.786,0,0,1-2.056.673Z" transform="translate(-207.827 -7.928)" fill="#0078d4"/>
              <path id="Path_7254" data-name="Path 7254" d="M373.879,16.124a20.244,20.244,0,0,0,2.908-1.185,18.972,18.972,0,0,0,2.451-1.506H380.6v18.1h-2.988V17.05a8.865,8.865,0,0,1-1.673.944,11.784,11.784,0,0,1-2.056.673Z" transform="translate(-220.665 -7.928)" fill="#0078d4"/>
            </g>
          </g>
        </g>
        <rect id="Rectangle_15251" data-name="Rectangle 15251" width="2" height="19" transform="translate(516 553)" fill="#fff"/>
      </g>
    </g>
  </g>
</svg>
