<svg xmlns="http://www.w3.org/2000/svg" width="69.874" height="69.874" viewBox="0 0 69.874 69.874">
  <g id="poly-sign-in" transform="translate(-0.5 -0.75)">
    <path id="Path_2543" data-name="Path 2543" d="M19.68,5.75A10.481,10.481,0,1,0,30.161,16.231,10.481,10.481,0,0,0,19.68,5.75ZM12.693,16.231a6.987,6.987,0,1,1,6.987,6.987A6.987,6.987,0,0,1,12.693,16.231Z" transform="translate(15.614 8.975)" fill="#024ad8" fill-rule="evenodd"/>
    <path id="Path_2544" data-name="Path 2544" d="M11.054,25.636a12.234,12.234,0,0,1,22.679,0,1.747,1.747,0,0,0,3.238-1.311,15.727,15.727,0,0,0-29.156,0,1.747,1.747,0,0,0,3.238,1.311Z" transform="translate(12.901 24.68)" fill="#024ad8"/>
    <path id="Path_2545" data-name="Path 2545" d="M70.374,35.687A34.937,34.937,0,1,1,35.437.75,34.937,34.937,0,0,1,70.374,35.687Zm-3.494,0A31.443,31.443,0,1,1,35.437,4.244,31.443,31.443,0,0,1,66.88,35.687Z" fill="#024ad8" fill-rule="evenodd"/>
  </g>
</svg>
