<svg xmlns="http://www.w3.org/2000/svg" width="18" height="19" viewBox="0 0 18 19">
  <g id="Group_15247" data-name="Group 15247" transform="translate(-441.001 -2137.503)">
    <path id="Path_2569" data-name="Path 2569" d="M46,71a9.035,9.035,0,0,1,7.267,3.158,9.182,9.182,0,0,1,1.348,2.165,7.483,7.483,0,0,1,.281.719c.029.089.051.158.065.209l.017.06c0,.007,0,.012.006.016s0,0,0,.005v0a.523.523,0,0,1-.387.633.53.53,0,0,1-.641-.383.024.024,0,0,0,0-.008c0-.008-.006-.022-.011-.041-.011-.037-.028-.094-.052-.168a6.7,6.7,0,0,0-.245-.625,8.135,8.135,0,0,0-1.194-1.918A7.978,7.978,0,0,0,46,72.048a7.98,7.98,0,0,0-6.452,2.779,8.227,8.227,0,0,0-1.194,1.918,6.61,6.61,0,0,0-.244.625c-.025.074-.043.131-.052.168-.006.019-.01.033-.011.041s0,.007,0,.008a.529.529,0,0,1-1.028-.25l.023-.086c.015-.05.036-.12.065-.209.059-.176.15-.424.281-.719a9.228,9.228,0,0,1,1.348-2.165A9.034,9.034,0,0,1,46,71Z" transform="translate(404 2078.519)"/>
    <path id="Path_2570" data-name="Path 2570" d="M49.731,37A5.468,5.468,0,0,1,55.2,41.261a.249.249,0,0,1,.006.034A2.274,2.274,0,0,1,56.81,43.46v.7a2.277,2.277,0,0,1-1.692,2.189,3.082,3.082,0,0,1-2.912,2.176.524.524,0,1,1,0-1.048,2,2,0,0,0,1.761-1.112,2.326,2.326,0,0,1-.828-.381,4.371,4.371,0,0,1-1.6,1.23,4.437,4.437,0,0,1-3.646,0,4.386,4.386,0,0,1-1.466-1.078,2.312,2.312,0,0,1-1.127.292,2.286,2.286,0,0,1-2.3-2.27v-.7a2.265,2.265,0,0,1,1.23-2.008A5.456,5.456,0,0,1,49.731,37ZM51.1,40.313a3.363,3.363,0,0,0-2.762,0A3.3,3.3,0,0,0,46.7,41.926a3.234,3.234,0,0,0,0,2.724,3.3,3.3,0,0,0,1.635,1.612,3.363,3.363,0,0,0,2.762,0,3.306,3.306,0,0,0,1.34-1.106,2.235,2.235,0,0,1-.234-1v-.7a2.24,2.24,0,0,1,.557-1.48c-.011-.018-.021-.035-.03-.055A3.292,3.292,0,0,0,51.1,40.313Zm-5.8,1.925a1.231,1.231,0,0,0-1.239,1.222v.7A1.231,1.231,0,0,0,45.3,45.381a1.263,1.263,0,0,0,.524-.115c-.03-.06-.061-.12-.089-.18a4.258,4.258,0,0,1-.27-2.836,1.319,1.319,0,0,0-.166-.012Zm9.206,0a1.231,1.231,0,0,0-1.239,1.222v.7a1.239,1.239,0,0,0,2.479,0v-.7A1.231,1.231,0,0,0,54.508,42.238Zm-4.777-4.19a4.433,4.433,0,0,0-4.357,3.144,2.337,2.337,0,0,1,.481.065,4.355,4.355,0,0,1,2.04-1.9,4.437,4.437,0,0,1,3.646,0,4.342,4.342,0,0,1,2.094,2,2.378,2.378,0,0,1,.461-.132,4.428,4.428,0,0,0-4.365-3.18Z" transform="translate(400.095 2100.503)" fill-rule="evenodd"/>
  </g>
</svg>
