<?xml version="1.0" encoding="UTF-8"?>
<svg xmlns="http://www.w3.org/2000/svg" xmlns:xlink="http://www.w3.org/1999/xlink" version="1.1" viewBox="0 0 560 1999">
  <defs>
    <style>
      .cls-1 {
        stroke: url(#linear-gradient-2);
      }

      .cls-1, .cls-2, .cls-3, .cls-4 {
        fill: none;
        stroke-miterlimit: 10;
        stroke-width: 36px;
      }

      .cls-2 {
        stroke: url(#linear-gradient-4);
      }

      .cls-3 {
        stroke: url(#linear-gradient-3);
      }

      .cls-4 {
        stroke: url(#linear-gradient);
      }
    </style>
    <linearGradient id="linear-gradient" x1="-352.5" y1="1252.2" x2="1663.4" y2="1252.2" gradientTransform="translate(1537.1 378) rotate(90)" gradientUnits="userSpaceOnUse">
      <stop offset="0" stop-color="#ff2aee"/>
      <stop offset="1" stop-color="#3f0003"/>
    </linearGradient>
    <linearGradient id="linear-gradient-2" x1="-332.7" y1="1124.5" x2="1663.4" y2="1124.5" gradientTransform="translate(1537.1 378) rotate(90)" gradientUnits="userSpaceOnUse">
      <stop offset="0" stop-color="#90faff"/>
      <stop offset="1" stop-color="#0a00bf"/>
    </linearGradient>
    <linearGradient id="linear-gradient-3" x1="38" y1="1043.4" x2="253.6" y2="1043.4" gradientUnits="userSpaceOnUse">
      <stop offset="0" stop-color="#efff00"/>
      <stop offset="1" stop-color="#d44100"/>
    </linearGradient>
    <linearGradient id="linear-gradient-4" x1="-328.7" y1="1385.2" x2="1663.3" y2="1385.2" gradientTransform="translate(1537.1 378) rotate(90)" gradientUnits="userSpaceOnUse">
      <stop offset="0" stop-color="#8cffa2"/>
      <stop offset="1" stop-color="#003f16"/>
    </linearGradient>
  </defs>
  <!-- Generator: Adobe Illustrator 28.6.0, SVG Export Plug-In . SVG Version: 1.2.0 Build 709)  -->
  <g>
    <g id="Layer_1">
      <path class="cls-4" d="M324.9,42.4s5.2,1.9-11.8,34.2c-18.1,34.5-52.1,59.7-71.9,93.9-33.6,58.2-35.7,127.7-20.4,192.2,20,84.2,106.5,120.4,131.2,201.4,10.3,33.5,8,72.1-12.1,100.8-9.7,13.9-23,25-33.1,38.7-30.3,41.3-28.4,101.4-28.4,150.4v1187.4"/>
      <path class="cls-1" d="M521,49.9c-16.7,63.5-46.7,115-93.4,161.5-58.8,58.6-129.3,124.4-122.5,215.4,2.7,36.2,18.5,69.9,29.8,104.4,30.2,92.2,28.6,191.4,26.4,288.4-5,222.7-4.8,444-4.8,666.7v555.1"/>
      <path class="cls-3" d="M236.2,49.9c-16.7,63.5-46.7,115-93.4,161.5-58.8,58.6-92.8,139.3-86,230.3,2.7,36.2,18.5,69.9,29.8,104.4,65.2,149.7-7.9,176.5-10.1,273.5-5,222.7-4.8,444-4.8,666.7v555.1"/>
      <path class="cls-2" d="M77.4,52.9c-20.3,98.5-9.1,202.9,30.3,295.4,47.2,110.9,122.8,211.1,128.2,336,3.9,91.3-28.6,184.7-55.5,270.8-15.9,52.7-42.2,159.6-42.2,258v828.2"/>
    </g>
  </g>
</svg>