<svg version="1.1" xmlns="http://www.w3.org/2000/svg" viewBox="0 0 24 24"><g clip-path="url(#clip0_16656_2625)"><path fill-rule="evenodd" clip-rule="evenodd" d="M16.5 3.77v6.244h2.25a2.26 2.26 0 0 1 2.25 2.27v6.81a2.26 2.26 0 0 1-2.25 2.27 1.13 1.13 0 0 1-1.125 1.136 1.13 1.13 0 0 1-1.125-1.135h-9A1.13 1.13 0 0 1 6.375 22.5a1.13 1.13 0 0 1-1.125-1.135A2.26 2.26 0 0 1 3 19.095v-6.811a2.26 2.26 0 0 1 2.25-2.27H7.5V3.77A2.26 2.26 0 0 1 9.75 1.5h4.5a2.26 2.26 0 0 1 2.25 2.27Zm0 15.325a.565.565 0 0 1-.563.567.565.565 0 0 1-.562-.567v-6.811c0-.314.252-.568.563-.568.31 0 .562.254.562.568v6.81Zm-1.688-9.081V4.338a1.13 1.13 0 0 0-1.125-1.135h-3.37a1.13 1.13 0 0 0-1.125 1.135v5.676h5.62ZM7.5 12.28v6.81c0 .313.25.566.56.566.31 0 .56-.253.56-.566v-6.81a.563.563 0 0 0-.56-.565c-.31 0-.56.253-.56.565Z"/></g><defs><clipPath id="clip0_16656_2625"><path d="M0 0h24v24H0z"/></clipPath></defs></svg>