<svg version="1.1" xmlns="http://www.w3.org/2000/svg" viewBox="0 0 24 24"><g clip-path="url(#clip0_2_4303)"><path fill-rule="evenodd" clip-rule="evenodd" d="M17 7a2 2 0 0 1 2 2v11a2 2 0 0 1-2 2v.5a.5.5 0 0 1-.5.5h-1a.5.5 0 0 1-.5-.5V22H9v.5a.5.5 0 0 1-.5.5h-1a.5.5 0 0 1-.5-.5V22a2 2 0 0 1-2-2V9a2 2 0 0 1 2-2h10Zm-.5 3h-1a.5.5 0 0 0-.492.41L15 10.5v8a.5.5 0 0 0 .41.492l.09.008h1a.5.5 0 0 0 .492-.41L17 18.5v-8a.5.5 0 0 0-.41-.492L16.5 10Zm-4 0h-1a.5.5 0 0 0-.492.41L11 10.5v8a.5.5 0 0 0 .41.492l.09.008h1a.5.5 0 0 0 .492-.41L13 18.5v-8a.5.5 0 0 0-.41-.492L12.5 10Zm-4 0h-1a.5.5 0 0 0-.492.41L7 10.5v8a.5.5 0 0 0 .41.492L7.5 19h1a.5.5 0 0 0 .492-.41L9 18.5v-8a.5.5 0 0 0-.41-.492L8.5 10ZM16 6h-2V3h-4v3H8V1.5a.5.5 0 0 1 .41-.492L8.5 1h7a.5.5 0 0 1 .492.41L16 1.5V6Z"/></g><defs><clipPath id="clip0_2_4303"><path d="M0 0h24v24H0z"/></clipPath></defs></svg>