<?xml version="1.0" standalone="no"?>
<!DOCTYPE svg PUBLIC "-//W3C//DTD SVG 20010904//EN"
 "http://www.w3.org/TR/2001/REC-SVG-20010904/DTD/svg10.dtd">
<svg version="1.0" xmlns="http://www.w3.org/2000/svg"
 width="16.000000pt" height="16.000000pt" viewBox="0 0 16.000000 16.000000"
 preserveAspectRatio="xMidYMid meet">

<g transform="translate(0.000000,16.000000) scale(0.100000,-0.100000)"
fill="#000000" stroke="none">
<path d="M68 143 c-2 -10 0 -25 5 -33 5 -9 4 -27 -3 -45 -7 -16 -14 -25 -17
-18 -2 7 1 21 7 32 6 12 7 21 3 21 -5 0 -14 -14 -21 -32 -6 -17 -14 -29 -18
-25 -3 3 2 26 11 52 21 53 16 66 -14 34 -29 -31 -27 -74 5 -106 29 -29 34 -26
58 40 13 34 23 47 37 47 22 0 23 -8 9 -44 -5 -14 -16 -26 -24 -26 -12 0 -26
-20 -26 -36 0 -13 34 0 55 21 40 40 30 96 -22 123 -30 16 -41 15 -45 -5z"/>
<path d="M106 84 c-4 -9 -4 -19 -1 -22 2 -3 7 3 11 12 4 9 4 19 1 22 -2 3 -7
-3 -11 -12z"/>
</g>
</svg>
